<svg width="371" height="371" viewBox="0 0 371 371" fill="none" xmlns="http://www.w3.org/2000/svg">
<rect width="370.479" height="370.479" rx="80" fill="white"/>
<path fill-rule="evenodd" clip-rule="evenodd" d="M230.088 39.562C249.601 39.5458 270.892 38.6896 290.149 40.808C303.058 42.2291 321.586 58.4956 323.198 71.6011C325.096 87.027 324.227 106.469 324.216 122.46L324.244 228.145C324.27 247.258 326.261 261.37 311.347 276.426C298.203 289.694 283.715 288.277 266.741 288.257L238.834 288.186L167.432 288.206C156.855 297.696 144.215 306.507 133.77 315.839C95.6693 349.882 100.326 320.891 100.996 288.194C85.6604 288.489 74.74 288.836 62.0702 278.615C42.4673 262.8 46.3609 238.299 46.3788 215.645L46.426 157.082L46.3317 107.146C46.298 90.3044 44.0407 69.435 55.8793 55.8783C64.6652 45.8179 75.525 40.909 88.7124 39.7585C96.621 39.4707 105.47 39.6056 113.456 39.5817L230.088 39.562ZM200.309 116.034C198.735 107.869 195.93 102.266 186.437 102.948C185.193 103.669 182.599 105.167 181.992 106.482C172.892 126.267 168.066 148.459 160.157 168.681C148.608 139.424 141.522 142.923 127.666 166.94C122.569 166.897 97.2495 165.428 94.5377 169.444C84.0628 184.959 105.273 185.472 115.072 184.632C132.424 183.421 135.509 188.693 144.634 172.015C147.829 178.797 151.721 190.326 158.915 193.248C163.868 195.258 170.686 189.873 172.145 185.54C176.984 171.163 184.19 153.958 188.155 139.488C189.512 148.67 192.198 157.177 194.087 166.229L202.844 204.439C204.353 211.114 205.526 218.281 207.702 224.706C210.281 232.314 220.7 232.385 224.16 225.264C230.54 212.137 235.571 198.045 240.791 184.392C250.222 184.515 290.387 189.373 275.491 168.968C272.848 165.348 242.717 167.577 237.242 167.125C226.704 166.254 220.697 186.701 217.777 195.446C213.704 169.128 205.37 142.295 200.309 116.034Z" fill="url(#paint0_linear_127_9)"/>
<defs>
<linearGradient id="paint0_linear_127_9" x1="185.238" y1="39.3774" x2="185.238" y2="331.101" gradientUnits="userSpaceOnUse">
<stop stop-color="#2563EB"/>
<stop offset="1" stop-color="#252FEB"/>
</linearGradient>
</defs>
</svg>
