<svg width="339" height="352" viewBox="0 0 339 352" fill="none" xmlns="http://www.w3.org/2000/svg">
<path fill-rule="evenodd" clip-rule="evenodd" d="M214.024 30.1875C233.538 30.1714 254.828 29.3151 274.085 31.4336C286.995 32.8547 305.522 49.1212 307.135 62.2267C309.032 77.6526 308.163 97.0941 308.153 113.086L308.18 218.771C308.207 237.884 310.198 251.995 295.284 267.051C282.139 280.319 267.651 278.903 250.678 278.883L222.77 278.812L151.369 278.832C140.792 288.322 128.151 297.133 117.707 306.464C79.606 340.508 84.2631 311.516 84.9325 278.82C69.597 279.115 58.6766 279.462 46.0068 269.241C26.404 253.426 30.2975 228.924 30.3155 206.271L30.3626 147.707L30.2683 97.7719C30.2346 80.9299 27.9774 60.0606 39.816 46.5039C48.6019 36.4434 59.4616 31.5345 72.6491 30.3841C80.5577 30.0963 89.4063 30.2311 97.3928 30.2072L214.024 30.1875ZM184.245 106.659C182.672 98.4947 179.867 92.8918 170.374 93.574C169.13 94.2942 166.535 95.7921 165.928 97.1076C156.829 116.893 152.002 139.084 144.093 159.307C132.545 130.049 125.459 133.549 111.602 157.566C106.506 157.523 81.1861 156.054 78.4743 160.07C67.9995 175.585 89.2101 176.098 99.0083 175.258C116.36 174.046 119.446 179.318 128.571 162.64C131.765 169.423 135.658 180.952 142.851 183.874C147.804 185.884 154.623 180.498 156.082 176.166C160.921 161.789 168.127 144.584 172.092 130.114C173.448 139.295 176.135 147.803 178.023 156.854L186.781 195.065C188.29 201.74 189.462 208.907 191.639 215.331C194.217 222.94 204.636 223.011 208.097 215.889C214.476 202.763 219.507 188.671 224.728 175.018C234.158 175.141 274.324 179.999 259.428 159.594C256.785 155.974 226.654 158.203 221.178 157.75C210.641 156.88 204.634 177.326 201.713 186.071C197.64 159.753 189.307 132.92 184.245 106.659Z" fill="url(#paint0_linear_124_86)"/>
<path d="M213.999 0.188529C231.741 0.173837 255.924 -0.74558 277.366 1.61333H277.368C292.748 3.30642 306.334 12.3197 315.067 20.2872C323.432 27.9199 334.461 41.0888 336.805 57.7667L336.91 58.5635L337.108 60.253C339.051 77.8566 338.161 99.7877 338.152 113.106L338.18 218.73L338.192 220.2C338.404 235.797 341.114 263.415 316.597 288.164L316.596 288.165C292.912 312.071 263.672 308.898 250.643 308.883C250.629 308.883 250.615 308.883 250.602 308.883L222.702 308.812L162.394 308.827C159.156 311.468 155.977 313.972 153.043 316.281C147.089 320.968 142.089 324.908 137.694 328.834L137.695 328.835C127.937 337.554 116.991 346.05 105.492 349.699C99.1008 351.728 89.6551 353.181 79.5685 349.269C69.0869 345.203 63.0672 337.369 59.9103 331.01C55.7566 322.643 54.772 313.158 54.5128 306.481C46.1324 304.351 37.2271 300.454 28.2023 293.408L27.17 292.59C9.62724 278.437 3.22138 260.263 1.07239 244.33C-0.759489 230.748 0.309372 214.052 0.315551 206.247L0.362426 147.764L0.268676 97.8321L0.259887 96.6348C0.184784 90.2616 -0.304962 78.2525 0.742309 67.8897C1.94748 55.9648 5.47213 40.2221 17.2189 26.7706C31.6963 10.1929 50.0739 2.23907 70.0421 0.497123L70.799 0.441459C71.0517 0.425842 71.3047 0.413562 71.5577 0.404349C80.1299 0.0923977 90.1273 0.228583 97.3029 0.207084L213.999 0.188529ZM274.085 31.4336C254.828 29.3151 233.538 30.1714 214.024 30.1875L97.3928 30.2072C89.4063 30.2311 80.5577 30.0963 72.6491 30.3841C59.4616 31.5345 48.6019 36.4434 39.816 46.5039C27.9774 60.0606 30.2346 80.9299 30.2683 97.7719L30.3626 147.707L30.3155 206.271C30.2975 228.924 26.404 253.426 46.0068 269.241C58.6766 279.462 69.597 279.115 84.9325 278.82C84.2631 311.516 79.606 340.508 117.707 306.464C128.151 297.133 140.792 288.322 151.369 278.832L222.77 278.812L250.678 278.883C267.651 278.903 282.139 280.319 295.284 267.051C310.198 251.995 308.207 237.884 308.18 218.771L308.153 113.086C308.163 97.0941 309.032 77.6526 307.135 62.2267C305.522 49.1212 286.995 32.8547 274.085 31.4336ZM170.374 93.574C179.867 92.8918 182.672 98.4947 184.245 106.659C189.307 132.92 197.64 159.753 201.713 186.071C204.634 177.326 210.641 156.88 221.178 157.75C226.654 158.203 256.785 155.974 259.428 159.594C274.324 179.999 234.158 175.141 224.728 175.018C219.507 188.671 214.476 202.763 208.097 215.889C204.636 223.011 194.217 222.94 191.639 215.331C189.462 208.907 188.29 201.74 186.781 195.065L178.023 156.854C176.135 147.803 173.448 139.295 172.092 130.114C168.127 144.584 160.921 161.789 156.082 176.166C154.623 180.498 147.804 185.884 142.851 183.874C135.658 180.952 131.765 169.423 128.571 162.64C119.446 179.318 116.36 174.046 99.0083 175.258C89.2101 176.098 67.9995 175.585 78.4743 160.07C81.1871 156.054 106.506 157.523 111.602 157.566C125.459 133.549 132.545 130.049 144.093 159.307C152.002 139.084 156.829 116.893 165.928 97.1076C166.535 95.7921 169.13 94.2942 170.374 93.574Z" fill="white"/>
<defs>
<linearGradient id="paint0_linear_124_86" x1="169.176" y1="30.003" x2="169.176" y2="321.727" gradientUnits="userSpaceOnUse">
<stop stop-color="#2563EB"/>
<stop offset="1" stop-color="#252FEB"/>
</linearGradient>
</defs>
</svg>
