<svg width="279" height="292" viewBox="0 0 279 292" fill="none" xmlns="http://www.w3.org/2000/svg">
<path fill-rule="evenodd" clip-rule="evenodd" d="M184.035 0.184562C203.549 0.168403 224.839 -0.687888 244.096 1.43059C257.005 2.85168 275.533 19.1182 277.145 32.2237C279.043 47.6496 278.174 67.0912 278.163 83.0829L278.191 188.768C278.217 207.881 280.209 221.992 265.294 237.048C252.15 250.316 237.662 248.9 220.689 248.88L192.781 248.809L121.38 248.829C110.802 258.319 98.1621 267.13 87.7172 276.461C49.6166 310.505 54.2737 281.513 54.9431 248.817C39.6076 249.112 28.6873 249.459 16.0174 239.238C-3.58542 223.423 0.30816 198.921 0.326095 176.268L0.373263 117.704L0.278927 67.7689C0.245226 50.9269 -2.01199 30.0576 9.82659 16.5009C18.6125 6.44043 29.4722 1.53151 42.6597 0.381096C50.5683 0.0932912 59.417 0.228143 67.4034 0.204215L184.035 0.184562ZM154.256 76.6562C152.683 68.4917 149.878 62.8888 140.385 63.571C139.14 64.2912 136.546 65.7891 135.939 67.1047C126.839 86.8897 122.013 109.081 114.104 129.304C102.555 100.046 95.4697 103.546 81.6129 127.563C76.5162 127.52 51.1968 126.051 48.485 130.067C38.0101 145.582 59.2207 146.095 69.0189 145.255C86.371 144.043 89.4567 149.315 98.5817 132.637C101.776 139.42 105.669 150.949 112.862 153.871C117.815 155.881 124.633 150.495 126.093 146.163C130.932 131.786 138.138 114.581 142.102 100.111C143.459 109.292 146.145 117.8 148.034 126.851L156.791 165.062C158.301 171.737 159.473 178.903 161.65 185.328C164.228 192.937 174.647 193.008 178.108 185.886C184.487 172.76 189.518 158.668 194.738 145.015C204.169 145.138 244.335 149.996 229.438 129.591C226.795 125.971 196.664 128.2 191.189 127.747C180.651 126.877 174.644 147.323 171.724 156.068C167.651 129.75 159.318 102.917 154.256 76.6562Z" fill="url(#paint0_linear_120_45)"/>
<defs>
<linearGradient id="paint0_linear_120_45" x1="139.186" y1="0" x2="139.186" y2="291.724" gradientUnits="userSpaceOnUse">
<stop stop-color="#2563EB"/>
<stop offset="1" stop-color="#252FEB"/>
</linearGradient>
</defs>
</svg>
