<svg width="1080" height="292" viewBox="0 0 1080 292" fill="none" xmlns="http://www.w3.org/2000/svg">
<path fill-rule="evenodd" clip-rule="evenodd" d="M184.035 0.184592C203.549 0.168433 224.839 -0.687858 244.096 1.43062C257.005 2.85171 275.533 19.1182 277.145 32.2237C279.043 47.6496 278.174 67.0912 278.163 83.083L278.191 188.768C278.217 207.881 280.209 221.992 265.294 237.048C252.15 250.316 237.662 248.9 220.689 248.88L192.781 248.809L121.38 248.829C110.802 258.319 98.1621 267.13 87.7172 276.461C49.6166 310.505 54.2737 281.513 54.9431 248.817C39.6076 249.112 28.6873 249.459 16.0174 239.238C-3.58542 223.423 0.30816 198.921 0.326095 176.268L0.373263 117.705L0.278927 67.769C0.245226 50.9269 -2.01199 30.0576 9.82659 16.5009C18.6125 6.44046 29.4722 1.53154 42.6597 0.381127C50.5683 0.0933217 59.417 0.228174 67.4034 0.204246L184.035 0.184592ZM154.256 76.6563C152.683 68.4917 149.878 62.8888 140.385 63.571C139.14 64.2912 136.546 65.7892 135.939 67.1047C126.839 86.8898 122.013 109.081 114.104 129.304C102.555 100.046 95.4697 103.546 81.6129 127.563C76.5162 127.52 51.1968 126.051 48.485 130.067C38.0101 145.582 59.2207 146.095 69.0189 145.255C86.371 144.043 89.4567 149.315 98.5817 132.637C101.776 139.42 105.669 150.949 112.862 153.871C117.815 155.881 124.633 150.495 126.093 146.163C130.932 131.786 138.138 114.581 142.102 100.111C143.459 109.292 146.145 117.8 148.034 126.851L156.791 165.062C158.301 171.737 159.473 178.904 161.65 185.328C164.228 192.937 174.647 193.008 178.108 185.886C184.487 172.76 189.518 158.668 194.738 145.015C204.169 145.138 244.335 149.996 229.438 129.591C226.795 125.971 196.664 128.2 191.189 127.747C180.651 126.877 174.644 147.323 171.724 156.068C167.651 129.75 159.318 102.917 154.256 76.6563Z" fill="url(#paint0_linear_122_54)"/>
<path d="M1040.73 86.608C1043.34 86.301 1045.96 86.1854 1048.59 86.2623C1073.42 86.7684 1080.44 106.083 1079.98 127.471C1072.02 127.626 1035.84 126.534 1030.98 127.917L1030.32 129.38C1031.1 136.368 1036 141.083 1042.39 143.346C1051.23 146.477 1057.88 140.77 1064.14 135.521C1065 134.8 1066.36 135.653 1067.28 136.021C1070.74 137.573 1074.83 139.878 1078.24 141.687C1066.84 158.845 1045.56 164.382 1028 153.141C1020.33 148.198 1014.93 140.419 1012.98 131.505C1008.57 111.023 1019.74 91.101 1040.73 86.608ZM873.098 88.1637C873.285 99.8093 870.172 130.663 877.275 139.292C879.187 141.619 881.746 142.999 884.757 143.226C888.56 143.512 893.428 141.87 896.253 139.363C903.96 132.522 900.697 99.4056 901.452 88.1578L918.29 88.2858L918.246 111.069C918.268 126.319 918.188 141.57 918.008 156.819C913.68 156.948 906.844 157.372 902.775 156.703C900.813 154.348 902.811 152.511 901.294 149.879C899.598 150.728 899.396 151.507 898.124 152.764C889.742 161.042 872.314 160.899 864.003 152.665C853.852 142.601 856.067 127.471 855.988 114.539L855.749 87.7311L873.098 88.1637ZM630.162 85.9762C656.093 86.9632 664.77 103.917 663.908 127.695C656.947 127.765 617.911 126.534 614.437 128.299C611.735 135.99 630.485 155.715 648.142 134.54L655.863 138.244L661.75 141.513C660.723 143.125 659.631 144.7 658.488 146.234C641.075 169.368 598.807 159.025 596.823 128.011C595.263 103.627 605.667 89.049 629.844 85.9635L630.162 85.9762ZM454.274 86.65C473.656 83.6603 490.157 95.5734 492.616 115.194C493.126 119.274 493.083 123.356 493.119 127.463C482.191 127.427 453.427 126.666 443.656 127.93L443.101 128.959C443.698 141.404 458.53 147.323 468.689 142.271C474.095 139.582 473.865 134.145 480.034 136.448L490.61 141.508C485.29 149.808 479.523 155.408 469.422 157.629C434.683 165.264 413.352 130.445 430.944 101.295C436.199 92.5951 444.446 88.6221 454.274 86.65ZM976.579 86.5397C986.011 85.2885 995.4 87.47 1002.86 93.5026C1005.36 95.5158 1007.79 100.259 1005.22 103.007C1004.3 103.359 993.567 107.342 993.272 107.164C989.095 104.387 981.172 95.6439 975.88 101.054C974.112 102.838 973.105 105.242 973.083 107.755C975.564 116.046 995.034 115.038 1002.27 121.863C1010.92 130.032 1011.25 140.57 1003.8 149.814C998.296 156.653 991.689 157.876 983.177 158.6C967.577 158.207 959.704 155.589 953.435 140.8C958.043 139.201 963.177 137.58 967.484 135.356C971.531 141.675 975.154 144.35 982.897 144.423C987.275 144.464 993.824 142.188 991.942 136.578C990.144 131.364 982.271 129.311 977.138 128.148C959.575 124.167 949.884 113.983 959.518 96.2291C962.76 90.2519 969.972 87.8666 976.579 86.5397ZM709.863 87.9274C714.866 88.4034 720.438 88.2807 725.456 88.0211C730.697 102.499 737.169 121.077 740.814 135.992C744.869 120.496 750.64 103.333 755.565 87.9987L772.971 87.9674C771.598 93.5239 769.656 98.8164 767.773 104.215C761.626 121.008 755.594 139.889 749.929 156.937L732.444 157.03C728.468 142.877 721.143 125.595 718.037 111.775C714.658 124.268 707.188 144.98 702.551 157.382C698.741 156.82 689.46 156.977 685.24 156.937C680.423 142.595 675.735 128.209 671.162 113.787C668.833 106.507 664.857 95.2826 663.535 88.1705C669.501 88.2446 675.476 88.2363 681.443 88.1471C685.735 103.45 691.064 119.806 694.644 135.153C698.785 120.592 705.19 102.697 709.863 87.9274ZM349.99 52.2487C363.62 52.2442 392.667 50.6011 404.258 55.7311C429.219 66.7766 428.578 105.873 401.194 115.95C409.807 129.708 417.549 142.675 425.81 156.614C419.246 156.943 412.064 156.95 405.443 157.076C404.997 156.887 404.466 156.658 403.833 156.39C396.996 145.063 388.706 128.96 381.914 118.196L368.931 118.414C368.316 131.231 368.586 144.028 368.604 156.865C362.515 157.107 355.806 156.899 349.668 156.834V89.6451C349.657 78.9355 349.173 62.5614 349.99 52.2487ZM545.295 87.9821C551.471 88.0885 557.648 88.2561 563.816 88.4869C560.437 95.154 557.136 104.468 554.282 111.518C548.171 126.569 542.557 141.986 536.159 156.912C530.184 157.115 524.116 156.96 518.134 156.873L502.267 117.079C498.378 107.534 494.374 98.0572 491.167 88.2574L509.758 88.4332C514.122 103.57 522.821 120.812 526.898 136.421C528.401 131.286 531.91 123.093 533.958 117.81L545.295 87.9821ZM586.752 88.0289C586.436 110.181 587.506 135.154 586.514 156.921C580.964 157.13 574.867 156.925 569.282 156.846C569.102 136.6 568.347 107.776 569.203 88.1686C574.983 88.0111 580.951 88.0584 586.752 88.0289ZM946.855 156.915L929.803 156.956C929.566 121.764 929.63 86.5705 930.018 51.3805L946.907 51.3619L946.855 156.915ZM778.897 52.151C791.845 52.5976 809.035 50.8544 821.213 52.3668C863.817 57.6592 863.458 118.864 816.842 121.152L797.624 121.156C797.438 133.054 797.351 144.955 797.366 156.854L778.954 156.891C778.236 123.367 778.739 85.8035 778.897 52.151ZM1062.03 111.247C1059.35 102.26 1050.88 99.8081 1042.63 101.007C1037.62 103.185 1029.85 107.076 1031.08 113.606C1034.38 116.737 1045.68 115.098 1050.51 115.156C1053.29 115.204 1060.15 115.625 1062.34 114.654C1062.82 113.159 1062.44 112.636 1062.03 111.247ZM476.038 115.006C472.221 104.646 467.188 99.043 455.182 100.919C450.416 103.105 442.559 107.636 444.262 113.867C447.548 116.559 458.381 114.777 463.687 114.87L476.038 115.006ZM647.327 115.164C644.221 103.981 638.311 99.1302 626.377 100.878C621.395 102.996 614.551 107.147 615.247 113.339C617.987 116.637 631.942 114.876 636.68 114.992L647.327 115.164ZM826.371 73.6305C818.161 68.5537 806.838 69.8822 797.614 70.0729C797.427 81.2354 797.375 92.4001 797.454 103.564C807.929 103.772 819.642 105.449 828.082 99.3004C833.855 90.8436 836.694 80.0098 826.371 73.6305ZM402.975 84.1442C402.04 66.6192 380.467 69.6333 368.328 69.8678L368.394 102.095C379.56 102.293 388.58 103.827 398.05 98.1139C402.184 93.3394 403.327 90.5988 402.975 84.1442ZM574.43 53.6119C580.289 51.7056 586.579 54.8954 588.513 60.7467C590.44 66.5981 587.277 72.9078 581.432 74.859C575.559 76.8197 569.211 73.6339 567.27 67.7516C565.336 61.8686 568.542 55.5296 574.43 53.6119Z" fill="#0F172A"/>
<path d="M804.793 229.885C803.462 229.885 802.797 229.261 802.797 228.014V195.983C802.797 194.735 803.462 194.112 804.793 194.112H813.274C819.661 194.112 823.968 194.902 826.197 196.482C828.442 198.045 829.564 200.456 829.564 203.716C829.564 205.994 828.724 207.757 827.045 209.005C825.382 210.252 823.768 210.975 822.205 211.175V211.25C823.719 211.35 825.498 212.115 827.544 213.545C829.589 214.975 830.612 216.996 830.612 219.607C830.612 222.667 829.365 225.145 826.87 227.041C824.375 228.937 820.259 229.885 814.522 229.885H804.793ZM810.081 223.798H813.723C817.249 223.798 819.644 223.49 820.908 222.875C822.189 222.259 822.829 221.012 822.829 219.133C822.829 217.37 822.089 216.156 820.609 215.491C819.145 214.809 816.85 214.468 813.723 214.468H810.081V223.798ZM810.081 208.581H813.349C815.495 208.581 817.499 208.206 819.361 207.458C821.241 206.71 822.18 205.545 822.18 203.966C822.18 202.735 821.656 201.803 820.609 201.172C819.577 200.523 817.158 200.199 813.349 200.199H810.081V208.581Z" fill="#45556C"/>
<path d="M835.003 205.637C834.554 204.34 834.828 203.691 835.826 203.691H840.291C841.056 203.691 841.555 204.115 841.788 204.963L845.555 218.908C845.738 219.557 845.896 220.397 846.029 221.428C846.179 222.442 846.253 223.091 846.253 223.374H846.403C846.603 222.492 846.744 221.794 846.827 221.278C846.927 220.746 847.185 219.723 847.601 218.21L851.168 204.963C851.401 204.115 851.9 203.691 852.665 203.691H857.13C858.111 203.691 858.386 204.34 857.953 205.637L849.546 230.933C848.565 233.893 847.359 236.205 845.929 237.868C844.499 239.531 842.511 240.362 839.967 240.362C838.57 240.362 837.323 240.246 836.225 240.013C835.593 239.88 835.352 239.448 835.502 238.716L836.05 235.972C836.2 235.257 836.624 235.007 837.323 235.223C837.838 235.39 838.32 235.473 838.77 235.473C840.117 235.473 841.139 234.832 841.838 233.552C842.553 232.271 843.027 231.174 843.26 230.259L843.335 229.885L835.003 205.637Z" fill="#45556C"/>
<path d="M878.26 229.885C877.062 229.885 876.671 229.336 877.087 228.238L889.311 196.132C889.826 194.785 890.608 194.112 891.656 194.112H895.148C896.196 194.112 896.978 194.785 897.493 196.132L909.717 228.238C910.133 229.336 909.742 229.885 908.544 229.885H904.578C903.48 229.885 902.715 229.311 902.283 228.163L899.738 221.453H887.066L884.521 228.163C884.089 229.311 883.324 229.885 882.226 229.885H878.26ZM889.386 215.266H897.418L894.35 207.333C893.984 206.402 893.76 205.728 893.676 205.313C893.61 204.88 893.535 204.248 893.452 203.417H893.352C893.269 204.248 893.186 204.88 893.103 205.313C893.036 205.728 892.82 206.402 892.454 207.333L889.386 215.266Z" fill="#45556C"/>
<path d="M912.162 216.788C912.162 212.547 913.226 209.221 915.355 206.809C917.484 204.398 920.752 203.192 925.159 203.192C927.736 203.192 929.741 203.533 931.171 204.215C932.601 204.897 933.749 205.895 934.613 207.209C935.129 207.99 935.046 208.606 934.364 209.055L931.72 210.801C930.971 211.3 930.314 211.108 929.749 210.227C929.466 209.795 928.926 209.329 928.127 208.83C927.329 208.331 926.339 208.082 925.159 208.082C923.279 208.082 921.874 208.747 920.943 210.077C920.011 211.391 919.546 213.628 919.546 216.788C919.546 219.948 920.011 222.193 920.943 223.523C921.874 224.837 923.279 225.494 925.159 225.494C926.506 225.494 927.595 225.211 928.427 224.646C929.258 224.081 930.04 223.349 930.772 222.451C931.404 221.686 932.069 221.578 932.767 222.126L935.087 223.948C935.786 224.496 935.827 225.228 935.212 226.143C934.563 227.107 933.458 228.055 931.894 228.987C930.348 229.918 928.102 230.384 925.159 230.384C920.752 230.384 917.484 229.178 915.355 226.766C913.226 224.355 912.162 221.029 912.162 216.788Z" fill="#45556C"/>
<path d="M939.253 216.788C939.253 212.58 940.301 209.262 942.397 206.834C944.509 204.406 947.486 203.192 951.327 203.192C955.784 203.192 959.094 204.34 961.256 206.635C963.418 208.93 964.499 212.622 964.499 217.711C964.499 218.709 964.033 219.208 963.102 219.208H946.638C946.904 221.968 947.585 223.706 948.683 224.422C949.781 225.137 951.053 225.494 952.5 225.494C953.88 225.494 954.936 225.311 955.668 224.945C956.4 224.58 957.015 224.081 957.514 223.449C958.08 222.717 958.778 222.6 959.61 223.099L962.104 224.621C963.085 225.22 963.227 225.935 962.528 226.766C961.514 227.981 960.325 228.887 958.961 229.486C957.597 230.084 955.444 230.384 952.5 230.384C947.727 230.384 944.326 229.17 942.297 226.742C940.268 224.313 939.253 220.996 939.253 216.788ZM946.662 214.218H957.514C957.514 212.422 957.065 210.959 956.167 209.828C955.269 208.68 953.839 208.107 951.876 208.107C950.313 208.107 949.074 208.655 948.159 209.753C947.245 210.834 946.746 212.323 946.662 214.218Z" fill="#45556C"/>
<path d="M969.414 228.139C968.599 227.556 968.374 226.933 968.74 226.268L970.012 223.948C970.461 223.116 971.16 223.016 972.108 223.648C973.056 224.28 974.17 224.746 975.451 225.045C976.748 225.345 977.929 225.494 978.993 225.494C979.741 225.494 980.44 225.419 981.088 225.27C981.737 225.12 982.286 224.829 982.735 224.397C983.184 223.964 983.408 223.332 983.408 222.501C983.408 222.002 983.275 221.578 983.009 221.228C982.743 220.879 982.402 220.613 981.986 220.43C981.571 220.247 981.13 220.097 980.664 219.981C980.049 219.831 979.159 219.582 977.995 219.233C976.848 218.883 975.742 218.476 974.677 218.01C973.796 217.628 972.931 217.096 972.083 216.414C971.251 215.715 970.636 214.942 970.237 214.094C969.854 213.246 969.663 212.198 969.663 210.95C969.663 209.271 970.145 207.799 971.11 206.535C972.091 205.271 973.355 204.398 974.902 203.916C976.448 203.433 978.378 203.192 980.689 203.192C982.253 203.192 983.774 203.417 985.254 203.866C986.735 204.315 987.791 204.739 988.423 205.138C989.42 205.77 989.67 206.444 989.171 207.159L987.649 209.379C987.184 210.044 986.435 210.094 985.404 209.529C984.622 209.096 983.849 208.747 983.084 208.481C982.336 208.215 981.496 208.082 980.565 208.082C979.933 208.082 979.326 208.148 978.743 208.281C978.161 208.414 977.662 208.664 977.247 209.03C976.848 209.396 976.648 209.878 976.648 210.477C976.648 211.108 976.831 211.607 977.197 211.973C977.579 212.323 978.012 212.58 978.494 212.747C978.993 212.913 979.467 213.071 979.916 213.221C980.847 213.52 981.787 213.811 982.735 214.094C983.683 214.36 984.647 214.684 985.629 215.067C986.477 215.399 987.3 215.873 988.098 216.489C988.897 217.104 989.479 217.886 989.845 218.834C990.21 219.781 990.393 220.863 990.393 222.077C990.393 223.69 989.911 225.187 988.946 226.567C987.982 227.947 986.71 228.928 985.13 229.511C983.55 230.093 981.712 230.384 979.617 230.384C977.272 230.384 975.276 230.217 973.629 229.885C971.983 229.552 970.578 228.97 969.414 228.139Z" fill="#45556C"/>
<path d="M994.51 229.885C993.312 229.885 992.921 229.336 993.337 228.238L1005.56 196.132C1006.08 194.785 1006.86 194.112 1007.91 194.112H1011.4C1012.45 194.112 1013.23 194.785 1013.74 196.132L1025.97 228.238C1026.38 229.336 1025.99 229.885 1024.79 229.885H1020.83C1019.73 229.885 1018.97 229.311 1018.53 228.163L1015.99 221.453H1003.32L1000.77 228.163C1000.34 229.311 999.574 229.885 998.476 229.885H994.51ZM1005.64 215.266H1013.67L1010.6 207.333C1010.23 206.402 1010.01 205.728 1009.93 205.313C1009.86 204.88 1009.79 204.248 1009.7 203.417H1009.6C1009.52 204.248 1009.44 204.88 1009.35 205.313C1009.29 205.728 1009.07 206.402 1008.7 207.333L1005.64 215.266Z" fill="#45556C"/>
<path d="M1028.41 216.788C1028.41 213.129 1029.2 209.953 1030.78 207.258C1032.38 204.548 1035.13 203.192 1039.04 203.192C1040.54 203.192 1041.82 203.408 1042.88 203.841C1043.94 204.273 1044.91 205.205 1045.77 206.635H1045.87C1045.81 205.97 1045.77 205.304 1045.77 204.639V194.561C1045.77 193.563 1046.27 193.064 1047.27 193.064H1051.26C1052.26 193.064 1052.76 193.563 1052.76 194.561V228.388C1052.76 229.386 1052.26 229.885 1051.26 229.885H1047.32C1046.49 229.885 1046.04 229.386 1045.97 228.388L1045.87 226.941H1045.77C1044.91 228.371 1043.94 229.303 1042.88 229.735C1041.82 230.167 1040.54 230.384 1039.04 230.384C1035.13 230.384 1032.38 229.037 1030.78 226.342C1029.2 223.632 1028.41 220.447 1028.41 216.788ZM1035.8 216.788C1035.8 219.449 1036.14 221.569 1036.82 223.149C1037.52 224.713 1038.99 225.494 1041.23 225.494C1042.48 225.494 1043.55 224.796 1044.43 223.399C1045.33 221.985 1045.77 220.156 1045.77 217.911V215.665C1045.77 213.42 1045.33 211.599 1044.43 210.202C1043.55 208.788 1042.48 208.082 1041.23 208.082C1038.99 208.082 1037.52 208.872 1036.82 210.452C1036.14 212.015 1035.8 214.127 1035.8 216.788Z" fill="#45556C"/>
<path d="M1059.02 228.139C1058.21 227.556 1057.98 226.933 1058.35 226.268L1059.62 223.948C1060.07 223.116 1060.77 223.016 1061.71 223.648C1062.66 224.28 1063.78 224.746 1065.06 225.045C1066.36 225.345 1067.54 225.494 1068.6 225.494C1069.35 225.494 1070.05 225.419 1070.7 225.27C1071.34 225.12 1071.89 224.829 1072.34 224.397C1072.79 223.964 1073.02 223.332 1073.02 222.501C1073.02 222.002 1072.88 221.578 1072.62 221.228C1072.35 220.879 1072.01 220.613 1071.59 220.43C1071.18 220.247 1070.74 220.097 1070.27 219.981C1069.66 219.831 1068.77 219.582 1067.6 219.233C1066.45 218.883 1065.35 218.476 1064.28 218.01C1063.4 217.628 1062.54 217.096 1061.69 216.414C1060.86 215.715 1060.24 214.942 1059.84 214.094C1059.46 213.246 1059.27 212.198 1059.27 210.95C1059.27 209.271 1059.75 207.799 1060.72 206.535C1061.7 205.271 1062.96 204.398 1064.51 203.916C1066.06 203.433 1067.98 203.192 1070.3 203.192C1071.86 203.192 1073.38 203.417 1074.86 203.866C1076.34 204.315 1077.4 204.739 1078.03 205.138C1079.03 205.77 1079.28 206.444 1078.78 207.159L1077.26 209.379C1076.79 210.044 1076.04 210.094 1075.01 209.529C1074.23 209.096 1073.46 208.747 1072.69 208.481C1071.94 208.215 1071.1 208.082 1070.17 208.082C1069.54 208.082 1068.93 208.148 1068.35 208.281C1067.77 208.414 1067.27 208.664 1066.85 209.03C1066.45 209.396 1066.26 209.878 1066.26 210.477C1066.26 211.108 1066.44 211.607 1066.8 211.973C1067.19 212.323 1067.62 212.58 1068.1 212.747C1068.6 212.913 1069.07 213.071 1069.52 213.221C1070.45 213.52 1071.39 213.811 1072.34 214.094C1073.29 214.36 1074.25 214.684 1075.24 215.067C1076.08 215.399 1076.91 215.873 1077.71 216.489C1078.5 217.104 1079.09 217.886 1079.45 218.834C1079.82 219.781 1080 220.863 1080 222.077C1080 223.69 1079.52 225.187 1078.55 226.567C1077.59 227.947 1076.32 228.928 1074.74 229.511C1073.16 230.093 1071.32 230.384 1069.22 230.384C1066.88 230.384 1064.88 230.217 1063.24 229.885C1061.59 229.552 1060.18 228.97 1059.02 228.139Z" fill="#45556C"/>
<defs>
<linearGradient id="paint0_linear_122_54" x1="139.186" y1="3.05176e-05" x2="139.186" y2="291.724" gradientUnits="userSpaceOnUse">
<stop stop-color="#2563EB"/>
<stop offset="1" stop-color="#252FEB"/>
</linearGradient>
</defs>
</svg>
